<?xml version="1.0" standalone="no"?>
<!DOCTYPE svg PUBLIC "-//W3C//DTD SVG 20010904//EN"
 "http://www.w3.org/TR/2001/REC-SVG-20010904/DTD/svg10.dtd">
<svg version="1.0" xmlns="http://www.w3.org/2000/svg"
 width="512.000000pt" height="512.000000pt" viewBox="0 0 512.000000 512.000000"
 preserveAspectRatio="xMidYMid meet">

<g transform="translate(0.000000,512.000000) scale(0.100000,-0.100000)"
fill="#fff" stroke="none">
<path d="M2361 4469 c-647 -68 -1217 -462 -1513 -1046 -275 -545 -275 -1176 2
-1728 250 -499 706 -863 1245 -996 455 -112 908 -60 1330 151 370 186 659 475
845 845 278 554 278 1181 2 1731 -355 706 -1123 1125 -1911 1043z m-302 -741
c50 -24 161 -124 191 -173 l21 -34 35 21 c60 36 141 49 324 55 199 6 334 -11
406 -51 l41 -23 23 34 c60 87 188 183 266 199 l31 6 19 -74 c22 -89 22 -196 0
-272 l-17 -57 36 -41 c72 -85 101 -179 115 -378 18 -251 -17 -395 -129 -538
-83 -104 -248 -194 -420 -229 l-77 -15 23 -47 c44 -89 53 -164 53 -468 l0
-283 -324 0 -324 0 5 124 c3 67 3 139 -1 160 -6 34 -9 36 -34 29 -55 -15 -214
-6 -274 15 -111 40 -194 115 -249 224 -50 100 -137 226 -177 255 -78 57 -76
73 6 73 102 -1 172 -47 253 -166 61 -91 122 -138 212 -166 54 -16 85 -19 138
-15 106 9 122 20 131 92 4 33 21 86 36 117 l28 58 -35 6 c-257 43 -441 163
-534 349 -53 106 -69 227 -56 423 12 197 42 295 115 380 l35 41 -16 56 c-27
92 -18 259 17 328 11 22 38 18 107 -15z"/>
</g>
</svg>
