<svg class="svg-icon" style="width: 1em;height: 1em;vertical-align: middle;fill: currentColor;overflow: hidden;" viewBox="0 0 1024 1024" version="1.1" xmlns="http://www.w3.org/2000/svg"><path d="M986.4192 687.6672c41.4208-137.2672-39.0656-282.3168-179.0976-318.8736-128.0512-33.3824-262.144 39.2192-304.2304 164.6592-43.8272 130.6112 24.32 270.2848 150.3232 318.0032 9.3696 3.5328 14.4384 13.6192 11.5712 23.1936l-11.8784 39.3216c-2.5088 8.2944 6.0928 15.5648 13.824 11.6736 42.3936-21.1456 122.9312-61.2864 138.7008-65.3312 83.5072-21.0944 154.112-84.224 180.7872-172.6464z" fill="#FD6758" /><path d="M902.2464 416.3584c1.4336 2.9696 189.7472 385.3312-208.8448 403.2-43.1104-0.9216-104.3456-19.968-169.472-78.3872 28.3648 49.152 73.1136 88.9344 129.4848 110.2848 9.3696 3.5328 14.4384 13.6192 11.5712 23.1936l-11.8784 39.3216c-2.5088 8.2944 6.0928 15.5648 13.824 11.6736 42.3936-21.1456 122.9312-61.2864 138.7008-65.3312 83.456-21.1456 154.0608-84.2752 180.7872-172.6976 30.8224-102.0416-5.8368-208.384-84.1728-271.2576z" fill="#E54C45" /><path d="M902.2464 416.3584a253.79328 253.79328 0 0 0-94.8736-47.5648 250.86464 250.86464 0 0 0-120.832-1.3824c-13.568 15.1552-23.6544 31.5904-27.4432 48.9472 96.768-50.688 243.1488 0 243.1488 0z" fill="#FF7E78" /><path d="M664.1152 625.0496c0-95.1808 63.6928-149.7088 136.2432-149.7088 23.5008 0 44.1344 6.912 61.0304 16.9984 15.0016 8.96 18.1248 29.44 7.0144 42.9056-8.7552 10.5984-23.9616 13.9776-35.8912 7.168-9.1136-5.2224-19.1488-8.3456-31.0272-8.3456-36.864 0-67.1744 33.024-67.1744 88.6784 0 56.832 26.112 89.8048 66.4064 89.8048 13.2608 0 25.088-3.9424 35.2768-10.1376 12.3392-7.4752 28.2112-5.2224 37.4784 5.8368l0.0512 0.1024c11.008 13.1072 8.192 32.7168-5.8368 42.4448-20.0704 13.8752-43.5712 20.8896-69.7344 20.8896-72.448 0-133.8368-49.92-133.8368-146.6368z" fill="#F7CC37" /><path d="M43.7248 691.6096c-43.3152-136.704 35.2256-282.8288 174.7456-321.28 127.5904-35.1232 262.656 35.6352 306.4832 160.512 45.6192 129.9968-20.6336 270.592-145.9712 320.0512-9.3184 3.6864-14.2848 13.7728-11.264 23.3472l12.3904 39.168c2.6112 8.2432-5.888 15.616-13.6704 11.8784-42.6496-20.5312-123.7504-59.648-139.5712-63.4368-83.7632-20.0192-155.2384-82.176-183.1424-170.24z" fill="#F29727" /><path d="M293.4784 403.9168l4.7104-42.1376a250.0096 250.0096 0 0 0-79.7184 8.6016C78.9504 408.832 0.4608 554.9568 43.7248 691.6608c16.896 53.4016 49.92 97.2288 91.9552 127.9488-181.6064-345.1904 157.7984-415.6928 157.7984-415.6928z" fill="#F7AC5C" /><path d="M278.784 840.8576c-26.624 3.9424-68.8128 18.8416-143.1552-21.2992a255.19104 255.19104 0 0 0 91.1872 42.2912c15.8208 3.7888 96.9216 42.8544 139.5712 63.4368 7.7824 3.7376 16.2816-3.6352 13.6704-11.8784l-12.3904-39.168c-3.0208-9.5232 1.9456-19.6608 11.264-23.3472 117.2992-46.2848 182.8352-172.3392 153.344-294.912l-14.6432 5.12c0.0512 0.0512-0.4608 228.8128-238.848 279.7568z" fill="#F47706" /><path d="M315.3408 693.5552l-86.0672 15.4624-3.8912 38.656c-1.3824 13.7216-13.056 25.2928-28.3136 28.0064-22.4256 4.0448-41.9328-12.2368-38.656-32.3584l32-214.2208c2.5088-15.5136 14.6432-36.1984 31.9488-39.3216l25.3952-4.5568c17.3568-3.1232 35.8912 12.032 43.6736 25.7536l104.6016 189.696c10.0352 17.7152-2.5088 39.7824-24.9856 43.8272l-2.3552 0.4096c-15.2576 2.7648-30.208-3.9936-36.3008-16.384l-17.0496-34.9696z m-21.8624-45.2096l-10.1888-20.5824c-12.4416-24.1152-25.344-53.504-37.888-78.2848l-1.5872 0.3072c-2.2016 28.16-4.608 59.5968-7.4752 86.4768l-2.3552 22.8352 59.4944-10.752z" fill="#F7CC37" /><path d="M728.9344 332.2368c0-130.304-108.1344-235.4176-239.5648-230.4-119.5008 4.5568-216.8832 101.9392-221.44 221.44-4.7616 125.952 91.4944 230.5024 214.272 239.0016 9.0624 0.6144 16.128 8.0384 16.128 17.1008v37.3248c0 7.8336 9.3696 11.9296 15.104 6.5536 31.3344-29.4912 90.88-85.6064 103.5264-93.2352 67.1232-40.3968 111.9744-113.8688 111.9744-197.7856z" fill="#4B8DFD" /><path d="M366.8992 247.6032c-6.0928-17.92 3.5328-37.376 21.4016-43.4688l68.1984-23.1424c59.5968-20.224 112.64-20.5312 131.4304 34.816 8.6528 25.5488 3.7888 58.2656-16.384 75.0592l0.512 1.536c31.6416-2.0992 61.0816 12.0832 74.0864 50.3808 19.968 58.8288-21.0432 102.0928-83.712 123.392l-76.3392 25.9072c-17.92 6.0928-37.376-3.5328-43.4688-21.4016L366.8992 247.6032z m125.696 48.4864c29.44-9.984 38.2464-27.2384 31.5392-46.9504-6.9632-20.5312-23.3984-24.4224-52.4288-14.592l-28.6208 9.728 20.8896 61.5424 28.6208-9.728z m46.848 118.8352c33.28-11.3152 46.2336-29.0816 37.8368-53.8624-8.0384-23.6032-27.8016-27.2384-61.4912-15.8208l-34.4576 11.6736 23.6544 69.6832 34.4576-11.6736z" fill="#F7CC37" /><path d="M685.7216 197.8368c-43.4688-60.4672-115.456-99.1232-196.3008-96.0512-119.5008 4.5568-216.8832 101.9392-221.44 221.44-3.072 80.9472 35.6352 152.9856 96.256 196.4544C253.0304 398.336 327.68 243.1488 381.5936 197.888c139.1616-110.08 301.6192-1.6896 304.128-0.0512z" fill="#76A4FF" /><path d="M498.3808 532.3776c-28.5184 3.9424-66.2528 9.9328-134.144-12.6976a229.0176 229.0176 0 0 0 118.016 42.5472c9.0624 0.6144 16.128 8.0384 16.128 17.1008v37.3248c0 7.8336 9.3696 11.9296 15.104 6.5536 31.3344-29.4912 90.88-85.6064 103.5264-93.2352 67.072-40.3456 111.9232-113.8176 111.9232-197.7344 0-46.1824-13.6192-89.1904-37.0688-125.2864 0.512 1.7408 71.4752 280.4736-193.4848 325.4272z" fill="#4479E2" /><path d="M247.7568 485.2224l-25.3952 4.5568c-17.3568 3.1232-29.44 23.808-31.9488 39.3216l-32 214.2208c-3.072 18.9952 14.1312 34.56 34.9184 32.8192-20.5312-3.584-16.9472-29.44-16.9472-29.44s24.832-161.4336 32.6656-213.7088 82.3808-22.0672 82.3808-22.0672c-7.7824-13.6704-26.368-28.8256-43.6736-25.7024z" fill="#FFD96E" /><path d="M371.0464 730.1632c-8.6016 1.2288-21.0944 2.7136-29.184-12.2368s-19.0976-39.2192-19.0976-39.2192l-106.8544 19.0976-5.1712 47.8208s-2.2016 23.04-25.4976 21.8112c-15.6672-1.9456-24.5248-5.7344-27.1872-20.48-0.5632 18.3808 17.92 32.5632 39.0144 28.7744 15.2576-2.7648 26.9312-14.2848 28.3136-28.0064l3.8912-38.656 86.0672-15.4624 17.1008 34.8672c6.0928 12.3904 21.0432 19.1488 36.3008 16.384l2.3552-0.4096c22.4256-4.0448 35.0208-26.112 24.9856-43.8272-0.0512 0-2.2016 24.6272-25.0368 29.5424z" fill="#E2AF23" /><path d="M582.5024 203.1104c-22.272-42.3936-71.3216-40.6528-125.952-22.0672l-68.1984 23.1424a34.2528 34.2528 0 0 0-21.4016 43.4688l12.9024 37.9904c-19.3536-56.9856 14.6944-67.5328 14.6944-67.5328s40.192-10.752 94.4128-27.1872c54.016-16.4352 93.2864 11.9808 93.5424 12.1856z" fill="#FFD96E" /><path d="M548.352 296.4992c9.4208-1.792 16.64-3.1744 23.2448-5.4784l-0.0512-0.1536c20.224-16.7936 25.0368-49.5104 16.384-75.0592-1.5872-4.6592-3.4304-8.8576-5.4272-12.7488 0 0.0512 17.1008 65.0752-34.1504 93.44z" fill="#E2AF23" /><path d="M526.2848 260.608s-0.0512 0 0 0c0.2048 14.848-10.0864 27.4944-33.6896 35.4816l-28.6208 9.728 2.7136 8.448 41.472-15.4112c0.0512 0.0512 27.4432-9.8816 18.1248-38.2464zM578.4576 365.1584c5.6832 22.6304-7.6288 39.0656-39.0656 49.7664l-34.4576 11.6736 3.2256 9.728 50.4832-18.1248c0.0512 0.0512 41.3184-15.5136 19.8144-53.0432z" fill="#FFD96E" /><path d="M646.1952 342.8352c-2.8672-8.448-6.5536-15.616-10.8544-21.8112 0.4096 1.6896 18.3808 79.0528-30.3104 105.5744-49.2544 26.8288-123.6992 49.408-123.6992 49.408s-27.904 11.52-41.8304-14.7456l3.2256 9.472a34.2528 34.2528 0 0 0 43.4688 21.4016l76.3392-25.9072c62.6176-21.2992 103.6288-64.5632 83.6608-123.392z" fill="#E2AF23" /><path d="M686.7456 590.336c18.944-93.4912 122.2144-103.936 145.408-99.328 38.1952 7.168 41.984 32.9728 41.984 33.024 3.072-11.8272-1.536-24.9856-12.7488-31.6416-16.9472-10.0864-37.5296-16.9984-61.0304-16.9984-72.5504 0-136.2432 54.528-136.2432 149.7088 0 73.5744 35.584 120.064 84.5312 138.0864-70.0416-59.904-66.5088-135.6288-61.9008-172.8512z" fill="#FFD96E" /><path d="M739.9424 663.552c-3.6352-11.7248-5.632-25.344-5.632-40.8064 0-55.6544 30.3104-88.6784 67.1744-88.6784 11.8784 0 21.9136 3.1232 31.0272 8.3456 11.9296 6.8096 27.136 3.4304 35.8912-7.168 0.8192-1.024 1.536-2.048 2.2016-3.1232-0.2048 0.1024-20.8896 11.3152-36.5056 0-15.6672-11.4176-55.2448-18.8928-83.6608 12.4416-28.416 31.3856-24.4736 91.904-10.5472 119.04 0.0512 0 0.0512-0.0512 0.0512-0.0512z" fill="#E2AF23" /><path d="M873.6256 708.352l-0.0512-0.1024c-9.2672-11.0592-25.1392-13.3632-37.4784-5.8368-10.1888 6.1952-22.016 10.1376-35.2768 10.1376-20.3264 0-37.0176-8.448-48.5888-24.064 26.1632 44.288 74.1376 30.2592 90.8288 23.04 16.64-7.168 36.3008 7.7824 36.4544 7.8848-1.1776-3.8912-3.072-7.7312-5.888-11.0592z" fill="#FFD96E" /><path d="M867.7888 750.7968a29.06624 29.06624 0 0 0 11.6224-31.3344s-7.3728 26.368-60.3136 40.704c-17.8688 3.3792-40.0384 8.9088-77.5168 0.1024 17.3056 7.5776 36.4544 11.3664 56.5248 11.3664 26.112 0.0512 49.6128-6.9632 69.6832-20.8384z" fill="#E2AF23" /><path d="M834.7136 700.2112c-10.7008 6.5024-22.1184 9.7792-33.9456 9.7792-39.3728 0-63.8464-33.4336-63.8464-87.2448 0-50.688 26.5728-86.1184 64.6144-86.1184 10.5984 0 20.3264 2.6112 29.7472 7.9872 12.9024 7.3728 29.3376 4.096 39.1168-7.7824a31.5392 31.5392 0 0 0 6.7584-25.5488 30.70464 30.70464 0 0 0-14.4384-21.1456c-19.3024-11.52-40.2944-17.3568-62.3616-17.3568-66.8672 0-138.8032 47.6672-138.8032 152.2688 0 103.0656 68.5568 149.1968 136.4992 149.1968 26.7776 0 50.688-7.168 71.168-21.3504a31.8464 31.8464 0 0 0 13.4144-21.8624 31.3856 31.3856 0 0 0-7.1168-24.4224c-10.0352-11.9808-27.2384-14.6432-40.8064-6.4z m42.8544 30.1568a26.496 26.496 0 0 1-11.264 18.3296c-19.6096 13.568-42.5472 20.4288-68.2496 20.4288-79.8208 0-131.3792-56.5248-131.3792-144.0768 0-101.0688 69.3248-147.1488 133.6832-147.1488 21.1456 0 41.2672 5.5808 59.7504 16.64a25.6 25.6 0 0 1 12.032 17.6128c1.3312 7.6288-0.768 15.4624-5.6832 21.4528-8.0384 9.7792-22.0672 12.5952-32.6656 6.6048-10.24-5.8368-20.7872-8.6528-32.3072-8.6528-41.0624 0-69.7344 37.5296-69.7344 91.2384 0 56.9856 26.4192 92.3648 68.9664 92.3648 12.8 0 25.1392-3.5328 36.608-10.5472 11.4176-6.912 25.8048-4.7104 34.2528 5.376a25.88672 25.88672 0 0 1 5.9904 20.3776zM285.5936 626.5856c-6.5536-12.6976-13.3632-27.136-19.9168-41.0624-5.9392-12.544-12.032-25.4464-17.9712-37.2224a2.6112 2.6112 0 0 0-2.7648-1.3824l-1.5872 0.3072a2.6112 2.6112 0 0 0-2.0992 2.304l-0.256 3.584c-2.0992 26.7776-4.4544 57.088-7.168 82.8416l-2.3552 22.8352c-0.1024 0.8192 0.2048 1.5872 0.8192 2.1504 0.4608 0.4608 1.0752 0.6656 1.7408 0.6656 0.1536 0 0.3072 0 0.4608-0.0512l59.4432-10.7008c0.768-0.1536 1.4848-0.6656 1.8432-1.3824s0.3584-1.5872 0-2.304l-10.1888-20.5824z m-48.6912 29.3376l1.9968-19.456c2.6112-24.9344 4.9664-54.1696 7.0144-80.2816 5.0176 10.1376 10.1376 20.992 15.104 31.5392 6.6048 13.9776 13.4144 28.4672 20.0192 41.1648l8.6528 17.5616-52.7872 9.472z" fill="#472F7E" /><path d="M293.632 509.6448c-7.5776-13.312-26.88-30.5152-46.336-26.9824l-25.3952 4.5568c-19.4048 3.4816-31.5904 26.3168-34.048 41.472l-32 214.2208c-1.536 9.5232 1.5872 18.944 8.6016 25.856 6.656 6.5536 15.9232 10.0864 25.7536 10.0864 2.4064 0 4.864-0.2048 7.2704-0.6656 16.4352-2.9696 28.928-15.4112 30.4128-30.3104l3.6864-36.7616L313.856 696.32l16.2304 33.1776c6.6048 13.4144 22.6304 20.7872 39.0656 17.8176l2.3552-0.4096c12.3904-2.2016 22.7328-9.8304 27.648-20.3776 4.1984-8.9088 3.84-18.8416-0.8704-27.1872L293.632 509.6448z m100.9152 214.784c-4.2496 9.0112-13.1584 15.5648-23.9104 17.5104l-2.3552 0.4096c-14.1312 2.56-27.9552-3.6352-33.536-15.0016l-17.1008-34.8672c-0.512-1.024-1.5872-1.5872-2.7648-1.3824L228.8128 706.56c-1.1264 0.2048-1.9968 1.1264-2.0992 2.2528l-3.8912 38.656c-1.28 12.5952-12.032 23.1936-26.2144 25.7536-10.752 1.9456-21.4016-1.0752-28.5184-8.0896-5.888-5.8368-8.448-13.4144-7.168-21.4016l32-214.2208c2.56-15.7696 14.7456-34.5088 29.9008-37.2224l25.3952-4.5568c1.3312-0.256 2.7136-0.3584 4.096-0.3584 14.1824 0 29.696 12.1856 36.864 24.832l104.6528 189.696c3.9936 7.0144 4.2496 15.0016 0.7168 22.528z" fill="#472F7E" /><path d="M967.0144 488.96c-34.4064-61.2864-90.88-104.8576-159.0272-122.624-25.4464-6.656-51.6608-9.216-78.0288-7.68 0.9728-8.704 1.536-17.5104 1.536-26.4192 0-63.9488-25.3952-123.5968-71.4752-167.9872-46.08-44.3392-106.6496-67.4816-170.752-64.9728-120.9344 4.608-219.2896 102.912-223.8976 223.8976-0.4608 12.3904 0.0512 24.5248 1.4336 36.4544-16.6912 1.1776-33.1776 3.9424-49.0496 8.3456-67.8912 18.6368-123.8016 62.9248-157.3376 124.672-33.5872 61.7984-40.3456 132.7104-19.1488 199.7312 27.392 86.528 96.5632 150.8352 184.9344 171.9296 15.5648 3.7376 98.9696 43.8784 139.0592 63.232a12.19584 12.19584 0 0 0 13.5168-1.792c3.7888-3.2768 5.2224-8.3456 3.6864-13.1584l-12.3904-39.168c-2.56-8.1408 1.6896-16.9984 9.728-20.1728 60.3136-23.808 107.4688-68.4032 135.0144-123.4944 28.9792 57.344 77.6192 101.3248 137.6256 124.1088 8.0896 3.072 12.4928 11.8784 10.0352 20.0192l-11.8784 39.3216c-1.4336 4.8128 0.0512 9.8304 3.8912 13.1072 2.304 1.9456 5.12 2.9696 7.936 2.9696 1.8944 0 3.7888-0.4608 5.5808-1.3312 39.8336-19.8656 122.6752-61.184 138.1888-65.1264 88.1152-22.3232 156.3648-87.552 182.5792-174.4384 20.4288-67.2768 12.6464-138.1376-21.76-199.424zM270.5408 323.328c4.5056-118.272 100.6592-214.4768 218.9312-218.9824 3.0208-0.1024 5.9904-0.1536 8.96-0.1536 59.3408 0 115.1488 22.4256 158.0544 63.744 45.056 43.4176 69.888 101.7344 69.888 164.3008 0 9.6256-0.6144 19.1488-1.792 28.5696 0 0.1024-0.0512 0.1536-0.0512 0.2048-5.4272 42.9568-22.5792 82.4832-49.1008 115.0464-0.4608 0.5632-0.9216 1.1776-1.4336 1.792-1.9968 2.4064-4.096 4.7616-6.1952 7.0656l-3.072 3.3792c-1.8944 1.9968-3.7888 3.9424-5.7856 5.888a249.40032 249.40032 0 0 1-9.6768 9.0624c-1.792 1.5872-3.6352 3.1232-5.4784 4.608-1.6384 1.3824-3.2768 2.7136-5.0176 4.0448-2.304 1.792-4.7104 3.5328-7.1168 5.2736-1.3312 0.9728-2.6624 1.9968-4.0448 2.9184-3.8912 2.6624-7.8336 5.2224-11.8784 7.68-0.0512 0-0.1024 0.0512-0.1024 0.1024-0.7168 0.4608-1.5872 1.0752-2.6112 1.792-0.1536 0.1024-0.256 0.2048-0.4096 0.3072-7.8848 5.7856-23.7568 19.712-48.8448 42.8032-0.4096 0.3584-0.768 0.7168-1.1776 1.0752l-5.6832 5.2224c-0.8192 0.768-1.6896 1.536-2.5088 2.3552l-4.352 4.0448c-1.28 1.1776-2.5088 2.3552-3.7376 3.4816-1.1264 1.024-2.304 2.1504-3.4304 3.2256l-4.8128 4.5056c-0.3584 0.3072-0.6656 0.6144-1.024 0.9216-6.1952 5.7856-12.0832 11.3664-17.5104 16.4864-2.7136 2.56-5.3248 5.0176-7.7312 7.3216-0.256 0.2048-0.512 0.3584-0.768 0.512a6.144 6.144 0 0 1-6.144 0.6656c-1.8944-0.8192-3.8912-2.7648-3.8912-5.888v-37.3248c0-10.3424-8.1408-18.944-18.5344-19.6608-3.584-0.256-7.1168-0.6144-10.5984-0.9728-1.9968-0.256-3.9936-0.512-5.9392-0.8192-1.3312-0.2048-2.7136-0.3584-4.0448-0.5632-2.9184-0.4608-5.8368-1.024-8.704-1.5872-0.2048-0.0512-0.4096-0.1024-0.6144-0.1024-94.0032-19.3024-167.6288-96.8192-180.1216-194.048 0-0.0512-0.0512-0.1024-0.0512-0.1536-1.6896-12.4928-2.3552-25.1904-1.8432-38.144z m241.8176 399.36c-0.1536 0.3072-0.2048 0.6144-0.2048 0.9728-26.6752 55.7568-73.6768 100.9664-134.1952 124.8768-10.5472 4.1472-16.128 15.7696-12.7488 26.4704l12.3904 39.168a7.168 7.168 0 0 1-2.2016 7.7312c-1.7408 1.4848-4.7616 2.56-7.9872 1.024-43.3152-20.8896-124.0064-59.7504-140.0832-63.5904-86.6304-20.6848-154.368-83.712-181.248-168.4992-20.7872-65.6896-14.1312-135.168 18.7392-195.7376C97.792 434.5856 152.576 391.168 219.136 372.8384c15.6672-4.3008 31.8976-7.0656 48.384-8.2432a231.66464 231.66464 0 0 0 184.1152 196.0448l0.6656 0.1536c2.9184 0.5632 5.8368 1.1264 8.7552 1.5872l4.1984 0.6144c1.9968 0.3072 3.9936 0.5632 6.0416 0.8192 3.584 0.4096 7.168 0.768 10.8032 1.024 7.7312 0.512 13.7728 6.912 13.7728 14.592v37.3248c0 4.6592 2.6624 8.7552 6.9632 10.5984 0.9728 0.4096 1.9456 0.6656 2.9184 0.768 0.256 0.0512 0.5632 0.0512 0.8192 0.1024 0.3072 0 0.5632 0.1024 0.8704 0.1024 0.5632 0 1.1264-0.0512 1.6384-0.1536 0.1024 0 0.256 0 0.3584-0.0512 0.9216-0.1536 1.792-0.512 2.6624-0.8704 0.256-0.1024 0.4608-0.2048 0.6656-0.3584 0.8192-0.4608 1.6384-0.9728 2.4064-1.6896 0 0 0.0512 0 0.0512-0.0512 3.584-3.3792 7.6288-7.2192 12.032-11.3152 2.9184-2.7648 5.9392-5.5808 9.0624-8.4992 1.6384 40.2432-6.5536 80.7936-23.9616 117.3504z m471.6032-35.7888c-25.7024 85.1456-92.6208 149.0944-178.944 170.9568-16.0768 4.0448-96.2048 44.032-139.2128 65.4848-3.1744 1.5872-6.1952 0.5632-7.936-0.9728a7.168 7.168 0 0 1-2.304-7.68l11.8784-39.3216c3.2256-10.752-2.5088-22.272-13.1072-26.3168-60.0576-22.7328-108.544-67.1232-136.6528-125.0304 15.4624-33.024 23.9616-69.632 24.1152-107.6224v-0.256c0-5.2224-0.1024-10.4448-0.4096-15.7184 20.2752-18.9952 43.6224-40.6016 59.6992-54.528l0.256-0.256c1.4336-1.2288 2.7648-2.3552 4.0448-3.4304 0.8192-0.7168 1.6384-1.3824 2.4064-2.048 0.4096-0.3072 0.8192-0.6656 1.1776-0.9728 1.1776-0.9728 2.2528-1.8432 3.2768-2.6624l0.6144-0.4608c1.0752-0.8192 2.048-1.5872 2.9184-2.2016 0.1024-0.0512 0.1536-0.1024 0.256-0.1536 0.9216-0.6656 1.6896-1.1776 2.3552-1.5872 4.1472-2.5088 8.1408-5.12 12.1344-7.8336 1.4336-0.9728 2.7648-1.9968 4.1472-2.9696 2.4576-1.7408 4.864-3.5328 7.2192-5.376 1.7408-1.3312 3.3792-2.7136 5.0688-4.096 1.8944-1.536 3.7376-3.1232 5.5808-4.7104 1.8944-1.6384 3.6864-3.328 5.5296-5.0176 1.4848-1.3824 2.9184-2.7648 4.352-4.1984 1.9968-1.9456 3.9424-3.9424 5.888-5.9904 1.024-1.0752 1.9968-2.2016 3.0208-3.2768 2.2016-2.4064 4.352-4.8128 6.4512-7.3216l0.7168-0.8704a230.1696 230.1696 0 0 0 50.9952-116.7872c26.112-1.5872 52.1216 0.9728 77.312 7.5264 66.816 17.408 122.1632 60.1088 155.8528 120.1664 33.5872 60.16 41.216 129.5872 21.2992 195.5328z" fill="#472F7E" /><path d="M480.0512 355.0208a2.58048 2.58048 0 0 0-1.6384 3.2256l23.7056 69.888c0.3584 1.0752 1.3824 1.7408 2.4064 1.7408 0.256 0 0.5632-0.0512 0.8192-0.1536l34.56-11.7248c17.2032-5.8368 29.2864-13.568 35.8912-22.8864 6.8608-9.6768 8.0896-21.248 3.6352-34.3552-8.3456-24.4736-28.3136-29.9008-64.9216-17.4592l-34.4576 11.7248z m94.6176 7.3728c3.9424 11.6736 2.9696 21.4016-2.9696 29.7472-5.9904 8.448-17.2032 15.5136-33.3824 20.992l-32.1024 10.9056-22.0672-65.024 32.1024-10.9056c33.6896-11.3664 51.1488-7.1168 58.4192 14.2848zM461.056 307.0464c0.3584 1.0752 1.3824 1.7408 2.4064 1.7408 0.256 0 0.5632-0.0512 0.8192-0.1536l28.7232-9.728c39.2704-13.312 37.6832-37.2736 33.2288-50.3296-3.7888-11.1616-10.24-17.8176-19.7632-20.3776-8.96-2.4064-20.736-1.024-36.096 4.1472l-28.7232 9.728a2.58048 2.58048 0 0 0-1.6384 3.2256l21.0432 61.7472z m11.0592-69.888c14.336-4.864 25.1904-6.1952 33.0752-4.0448 7.8336 2.0992 13.0048 7.5264 16.2304 17.1008 6.7072 19.7632-3.6864 34.9184-30.0544 43.8272l-26.3168 8.9088-19.3024-56.8832 26.368-8.9088z" fill="#472F7E" /><path d="M439.7056 472.4224a36.9664 36.9664 0 0 0 46.7968 23.0912l76.544-26.0096c33.2288-11.264 58.9312-28.1088 74.2912-48.64 17.0496-22.784 20.9408-49.8688 11.264-78.336-11.5712-34.0992-37.5808-52.9408-72.1408-52.48 19.2-19.2 21.6576-51.5584 13.7216-74.9056-16.8448-49.664-61.0304-61.6448-135.0144-36.5056l-68.4032 23.2448c-19.2512 6.5536-29.6448 27.5456-23.0912 46.7968l76.032 223.744z m-51.2-265.728l68.4032-23.2448c24.2688-8.2432 45.1072-12.3392 62.72-12.3392 33.7408 0 55.4496 15.1552 65.792 45.6704 7.8336 23.04 4.9664 55.3472-15.616 72.4992-0.8192 0.6656-1.1264 1.792-0.768 2.7648l0.512 1.536c0.3584 1.0752 1.3824 1.792 2.6112 1.7408 20.1728-1.3824 56.2176 3.2256 71.68 48.7936 9.216 27.1872 5.6832 51.968-10.496 73.6256-14.7456 19.712-39.5776 35.8912-71.8336 46.848L484.864 490.6496c-16.5888 5.632-34.6624-3.2768-40.3456-19.8656l-75.9808-223.744c-5.5808-16.64 3.328-34.7136 19.968-40.3456z" fill="#472F7E" /></svg>