<svg class="svg-icon" style="width: 1em; height: 1em;vertical-align: middle;fill: currentColor;overflow: hidden;" viewBox="0 0 1024 1024" version="1.1" xmlns="http://www.w3.org/2000/svg"><path d="M512.1 512.1m-342.8 0a342.8 342.8 0 1 0 685.6 0 342.8 342.8 0 1 0-685.6 0Z" fill="#75AFCC" /><path d="M960.1 512.1c0 247.4-200.6 448-448 448s-448-200.6-448-448 200.6-448 448-448 448 200.6 448 448z" fill="#F93D3D" /><path d="M569 341.7c-0.8-2.8-2.2-7.3-3.1-10 0 0-2.6-7.8-4.5-10.2-1.9-2.4-14.8-2.9-14.8-2.9-2.9-0.1-5.8-0.2-6.4-0.2-0.7 0-3.5 0.1-6.4 0.2 0 0-8.2 0.3-11.3 0.8-3.1 0.5-7.7 12.4-7.7 12.4-1.1 2.7-2.6 7.2-3.3 9.9L383.9 798.9c-0.8 2.8 1 5.1 3.8 5.1h42.5c2.9 0 5.8-2.3 6.5-5.1l99.5-400c0.7-2.8 2.1-6.4 3.2-8 1.1-1.6 4 5.2 4.7 8l99.5 400c0.7 2.8 3.6 5.1 6.5 5.1h42.5c2.9 0 4.6-2.3 3.9-5.1L569 341.7z" fill="#CE9132" /><path d="M786.6 675.6c0 19.1-15.2 34.6-34 34.6H299.5c-18.8 0-34-15.5-34-34.6v-346c0-19.1 15.2-34.6 34-34.6h453.1c18.8 0 34 15.5 34 34.6v346z" fill="#FAAF3D" /><path d="M740.1 637.8c0 12.1-9.7 21.8-21.6 21.8H329.8c-11.9 0-21.6-9.8-21.6-21.8V353.7c0-12.1 9.7-21.9 21.6-21.9h388.8c11.9 0 21.6 9.8 21.6 21.9v284.1z" fill="#0C5054" /><path d="M702.8 640.7h-44.1c-4.4 0-12.4 2.3-12.4 7.2v4.6c0 4 2.7 7.2 7.5 7.2h48.9c4.4 0 7.9-3.2 7.9-7.2v-4.6c0.2-4-3.4-7.2-7.8-7.2zM596.7 640.7h-44.1c-4.4 0-12.4 2.3-12.4 7.2v4.6c0 4 2.7 7.2 7.5 7.2h48.9c4.4 0 7.9-3.2 7.9-7.2v-4.6c0.1-4-3.5-7.2-7.8-7.2z" fill="#FFFFFF" /><path d="M427 558c0-1.4 0.2-3.1 0.5-5.1 0.3-2 0.5-4.5 0.5-7.4-1.6 1.2-3.4 2.6-5.4 4.2-2 1.6-4 3.2-6.1 4.7-2.1 1.5-4.2 2.7-6.3 3.7-2.1 1-4.1 1.5-5.9 1.5-1.5 0-2.9-0.2-4.2-0.7-1.3-0.4-2.5-1-3.4-1.8-2.6-2.1-4.5-4.1-5.7-6.2-1.2-2.1-1.7-4.5-1.7-7.2 0-1.2 0.1-2.5 0.3-3.8 0.2-1.3 0.6-2.9 1-4.6 1.9-7.8 5.1-15 9.6-21.6 4.6-6.6 10.2-12.3 17-17 2.6-1.8 5.2-3 7.8-3.5 2.6-0.5 5.2-0.8 7.8-0.8 1.1 0 2.4 0.1 3.8 0.2s2.7 0.3 3.8 0.4c1.1-0.2 2.1-0.4 2.8-0.5 0.7-0.1 1.5-0.1 2.3-0.1 1.5 0 2.7 0.2 3.7 0.6 1 0.4 1.8 0.9 2.4 1.6s1 1.4 1.3 2.3c0.3 0.9 0.4 1.8 0.4 2.7 0 1.3-0.2 2.5-0.6 3.7-0.4 1.2-0.8 2.3-1.2 3.5l-9.8 39c-0.2 2.1-0.4 4.1-0.5 5.8-0.1 1.8-0.4 3.4-0.9 5-0.1 0.4-0.3 1-0.6 1.7s-0.6 1.3-1.1 1.9c-0.5 0.6-1.1 1.1-1.8 1.6-0.7 0.4-1.7 0.7-2.9 0.7-1.5 0-2.7-0.1-3.7-0.3-0.9-0.2-1.6-0.5-2.1-0.9s-0.8-0.8-1-1.3-0.1-1.3-0.1-2z m-24.5-22.3c-0.2 0.7-0.4 1.7-0.6 3s-0.3 2.6-0.3 3.8c0 1.3 0.2 2.5 0.6 3.6 0.4 1.1 1.3 1.6 2.6 1.6 2.1 0 4-0.5 5.8-1.4 1.8-0.9 3.5-2 5.1-3.3 2.1-1.7 4.3-3.7 6.5-5.8 2.2-2.1 4.3-4.4 6.2-6.8 1.9-2.4 3.7-4.8 5.2-7.3s2.6-5 3.3-7.4c0.4-1.4 0.7-3.1 1-5 0.3-1.9 0.4-3.5 0.4-5 0-0.6-0.1-1.3-0.4-1.9-0.3-0.6-0.9-0.9-1.7-0.9-2.4 0-4.8 0.5-7.3 1.4-2.4 0.9-4.8 2.2-7.1 3.8-2.3 1.6-4.4 3.4-6.5 5.6-2 2.1-3.9 4.4-5.6 6.9-1.7 2.4-3.1 5-4.3 7.5-1.3 2.6-2.3 5.1-2.9 7.6z" fill="#FFFFFF" /><path d="M611.7 532.3c0.9-3.8 2.3-7.8 4.2-11.9s4.1-8.1 6.7-12c2.6-3.9 5.6-7.4 8.9-10.7 3.3-3.3 7-6 10.9-8 1.3-0.7 2.7-1.2 4.2-1.6 1.5-0.3 3.1-0.5 4.7-0.5s3.1 0.1 4.5 0.4c1.4 0.3 2.6 0.8 3.6 1.5s1.8 1.6 2.4 2.7 0.9 2.4 0.9 4c0 1.2-0.2 2.4-0.5 3.6-0.3 1.2-0.9 2.3-1.6 3.3-0.7 1-1.6 1.7-2.6 2.3-1 0.6-2.2 0.9-3.6 0.9-1.1 0-2.1-0.2-3-0.6-0.9-0.4-1.8-0.8-2.6-1.3-0.4-0.3-0.9-0.6-1.3-0.8-0.4-0.2-0.9-0.4-1.4-0.6-2 0.9-3.8 2.1-5.6 3.5-1.7 1.5-3.4 3.1-4.9 4.8-1.5 1.8-2.9 3.7-4.1 5.7-1.3 2-2.4 4-3.4 6.1-1 2-1.9 4-2.6 6-0.7 1.9-1.3 3.7-1.7 5.4-0.3 1.2-0.7 2.5-0.9 4-0.3 1.5-0.4 3-0.4 4.4 0 1 0.1 1.9 0.3 2.8 0.2 0.9 0.5 1.7 0.9 2.4s1 1.2 1.8 1.6c0.7 0.4 1.7 0.6 2.7 0.6 1.7 0 3.4-0.2 5.1-0.7 1.7-0.4 3.4-1 5-1.7s3.2-1.5 4.8-2.4c1.6-0.9 3.1-1.8 4.5-2.8 0.9-0.6 1.9-1.2 2.8-1.8 0.9-0.6 1.8-1.2 2.7-1.7 0.8-0.5 1.6-0.9 2.3-1.2 0.7-0.3 1.3-0.5 1.9-0.5 0.7 0 1.4 0.2 2.1 0.6 0.6 0.4 1 1 1 1.9 0 0.6-0.1 1.4-0.4 2.1-0.7 1.9-1.6 3.6-2.8 5.2s-2.5 2.9-4 4.1c-1.5 1.2-3 2.3-4.7 3.2-1.7 0.9-3.3 1.8-4.9 2.6-3.1 1.6-6.1 2.8-9.3 3.7-3.1 0.8-5.8 1.2-7.9 1.2-0.7 0-1.5-0.1-2.4-0.2-0.9-0.1-1.7-0.4-2.4-0.7-4-1.7-6.9-4-8.7-6.9-1.8-2.9-2.7-6.4-2.7-10.3 0-1.7 0.1-3.5 0.4-5.4 0.1-2.2 0.5-4.2 1.1-6.3z" fill="#FFFFFF" /><path d="M501.4 536.9c1-4 2.1-8.3 3.4-13 1.3-4.7 2.6-9.5 4-14.4s2.7-9.8 4.1-14.6c1.4-4.8 2.6-9.4 3.7-13.7 1.1-4.3 2.1-8.2 2.9-11.6 0.8-3.4 1.4-6.2 1.7-8.4l0.8-6c0.1-0.4 0.3-0.9 0.5-1.5 0.2-0.5 0.4-1 0.8-1.5 0.3-0.5 0.8-0.9 1.4-1.2 0.6-0.3 1.3-0.5 2.1-0.5 1.5 0 2.8 0.3 3.8 0.8s1.9 1.3 2.5 2.2c0.6 0.9 1 2 1.3 3.1 0.2 1.2 0.4 2.4 0.4 3.7 0 1.3-0.1 2.6-0.3 3.9-0.2 1.3-0.4 2.5-0.7 3.5-1.6 6.8-3.5 13.6-5.6 20.4-2.1 6.9-4 13.8-5.7 20.7 1.9-1.8 4-3.6 6.2-5.2 2.2-1.7 4.5-3.1 7-4.4 2.4-1.3 4.9-2.3 7.5-3 2.6-0.7 5.1-1.1 7.7-1.1 2.7 0 5 0.4 7 1.2 2 0.8 3.6 1.9 4.9 3.2 1.3 1.4 2.2 3 2.8 4.8 0.6 1.9 0.9 3.9 0.9 6.1 0 1-0.1 2.1-0.2 3.2s-0.3 2.2-0.6 3.2c-1.3 5.1-3.1 9.7-5.4 13.7-2.3 4-5 7.6-8 10.8-3 3.2-6.2 6-9.7 8.4-3.5 2.4-7 4.6-10.5 6.5-2.3 1.2-4.5 2.2-6.7 2.8-2.1 0.7-4.3 1-6.3 1s-3.6-0.2-4.6-0.6c-1.1-0.4-2-1-2.8-1.9-0.2 0.5-0.6 1-0.9 1.6s-0.8 1-1.3 1.5-1.1 0.8-1.8 1.1c-0.7 0.3-1.5 0.4-2.4 0.4-2.8 0-4.8-0.7-6-2.1-1.2-1.4-1.8-3.3-1.8-5.7 0-0.8 0.1-1.7 0.2-2.5 0.1-0.9 0.3-1.7 0.6-2.5l3.1-12.4z m47-30c-2.3 0-4.8 0.6-7.6 1.8-2.7 1.2-5.5 2.6-8.2 4.4-2.8 1.7-5.4 3.6-8 5.6-2.6 2-4.8 3.8-6.8 5.4-0.6 2-1.2 4-1.8 5.8-0.6 1.9-1.2 3.8-1.7 5.7-0.6 1.9-1.1 3.9-1.6 5.9-0.5 2-0.9 4.2-1.2 6.4l-0.4 2.9 0.4 1.3c1-0.6 2-1 2.8-1.3 0.9-0.3 1.7-0.6 2.5-0.8s1.7-0.5 2.5-0.7c0.9-0.2 1.9-0.6 3-1 7.7-3.1 14.2-7.3 19.5-12.5 5.2-5.2 8.8-11.7 10.8-19.3 0.2-1.1 0.4-2 0.6-2.9 0.1-0.8 0.2-1.6 0.2-2.3 0-1.5-0.4-2.6-1.2-3.3-0.7-0.8-2-1.1-3.8-1.1z" fill="#FFFFFF" /></svg>